<?xml version="1.0" standalone="no"?>
<!DOCTYPE svg PUBLIC "-//W3C//DTD SVG 20010904//EN"
 "http://www.w3.org/TR/2001/REC-SVG-20010904/DTD/svg10.dtd">
<svg version="1.0" xmlns="http://www.w3.org/2000/svg"
 width="128.000000pt" height="128.000000pt" viewBox="0 0 128.000000 128.000000"
 preserveAspectRatio="xMidYMid meet">
<metadata>
Created by potrace 1.11, written by Peter Selinger 2001-2013
</metadata>
<g transform="translate(0.000000,128.000000) scale(0.100000,-0.100000)"
fill="#000000" stroke="none">
<path d="M0 720 l0 -560 179 0 c150 0 180 2 185 15 3 8 1 15 -4 15 -6 0 -10
-4 -10 -10 0 -14 -327 -14 -335 0 -6 10 28 13 143 10 41 -1 71 4 85 13 13 8
40 18 62 21 38 7 85 35 85 52 0 4 -5 3 -12 -4 -7 -7 -16 -12 -20 -12 -14 0 -8
67 7 80 13 11 15 8 15 -15 0 -41 10 -25 20 32 l9 48 -3 -52 c-2 -42 0 -49 10
-39 7 7 14 31 17 52 l4 39 1 -37 c1 -21 6 -38 11 -38 10 0 27 45 34 90 3 15 5
7 6 -20 2 -25 5 -39 8 -32 2 6 11 12 18 12 9 0 15 15 18 38 l4 37 1 -38 c1
-23 6 -36 12 -32 10 6 14 -13 10 -49 -1 -11 3 -17 12 -14 9 3 14 28 16 76 3
64 1 72 -15 72 -18 0 -90 -15 -128 -27 -17 -5 -16 -2 5 16 l25 23 -23 -5 c-24
-6 -44 19 -25 32 6 3 14 17 18 30 5 16 10 20 15 11 5 -8 10 -4 15 12 7 20 8
19 15 -17 l7 -40 2 42 c1 38 4 42 34 52 39 13 136 16 190 6 35 -7 37 -9 39
-49 l1 -41 4 38 c5 47 25 44 31 -4 5 -45 12 -51 12 -10 0 42 20 31 21 -12 1
-26 3 -27 6 -8 l5 23 14 -27 c20 -39 18 -46 -13 -39 l-28 5 25 -22 c21 -18 22
-21 5 -16 -26 8 -108 26 -117 27 -5 0 -8 -20 -8 -44 0 -39 2 -43 24 -43 17 0
26 6 29 21 3 16 5 15 6 -7 0 -16 5 -26 11 -22 6 4 10 -10 10 -34 0 -63 20 -48
22 17 l2 57 3 -52 c2 -29 10 -57 18 -63 13 -11 15 -4 16 46 l2 59 6 -52 c9
-69 21 -78 22 -17 l2 49 7 -40 c7 -37 7 -37 10 -10 2 27 3 26 17 -19 17 -55
11 -65 -42 -66 -26 -1 -28 -2 -12 -11 10 -6 29 -8 43 -5 13 4 32 2 41 -2 57
-29 128 -42 222 -42 l101 0 0 545 0 545 -291 0 c-208 0 -288 -3 -283 -11 5 -8
1 -8 -14 0 -14 7 -131 11 -356 11 l-336 0 0 -560z m362 329 c17 -20 26 -40 22
-49 -4 -8 -6 -32 -5 -52 2 -40 -8 -48 -29 -23 -7 8 -15 13 -19 11 -9 -6 -8 36
2 51 5 8 1 11 -13 8 -14 -3 -18 0 -13 8 11 18 12 37 2 37 -5 0 -9 5 -9 10 0 6
3 9 8 9 21 -4 24 3 6 15 -19 15 -19 15 0 12 11 -1 32 -18 48 -37z m17 -145 c5
4 19 -14 30 -40 12 -27 29 -48 41 -51 24 -6 25 -13 5 -39 -13 -18 -14 -18 -9
6 5 20 3 22 -5 10 -9 -13 -11 -12 -11 5 -1 19 -1 19 -11 2 -13 -23 -32 -12
-20 12 6 10 6 23 1 31 -5 8 -7 17 -4 21 2 4 -5 7 -16 6 -11 -1 -20 -6 -20 -11
0 -5 -3 -6 -6 -3 -4 4 -1 13 6 22 10 12 9 16 -4 21 -9 3 -16 11 -16 16 0 6 6
5 15 -2 8 -6 19 -9 24 -6z m273 -49 c3 -27 0 -35 -12 -35 -12 0 -15 8 -12 35
2 19 8 35 12 35 4 0 10 -16 12 -35z m-108 -63 c2 -4 -3 -16 -11 -27 -10 -13
-14 -14 -10 -4 3 9 0 16 -9 16 -7 0 -11 -4 -9 -8 3 -4 -2 -9 -10 -13 -17 -6
-27 7 -20 27 6 14 61 21 69 9z m202 -16 c2 -14 0 -15 -12 -5 -17 14 -19 32 -2
27 6 -2 12 -12 14 -22z m-77 -4 c9 -16 6 -18 -25 -18 -47 1 -44 32 3 35 7 1
17 -7 22 -17z m28 -43 c58 -25 89 -52 114 -101 l18 -36 -52 14 c-76 22 -209
19 -280 -4 -52 -18 -56 -18 -42 -3 8 10 15 22 15 27 0 21 62 76 112 99 29 14
56 25 60 25 3 0 28 -9 55 -21z"/>
<path d="M336 958 c3 -5 10 -6 15 -3 13 9 11 12 -6 12 -8 0 -12 -4 -9 -9z"/>
<path d="M570 566 c0 -20 2 -36 4 -36 8 0 12 61 4 66 -4 3 -8 -11 -8 -30z"/>
<path d="M622 570 c0 -19 2 -27 5 -17 2 9 2 25 0 35 -3 9 -5 1 -5 -18z"/>
<path d="M672 570 c0 -19 2 -27 5 -17 2 9 2 25 0 35 -3 9 -5 1 -5 -18z"/>
<path d="M532 560 c0 -19 2 -27 5 -17 2 9 2 25 0 35 -3 9 -5 1 -5 -18z"/>
<path d="M710 573 c0 -10 5 -25 10 -33 7 -11 10 -7 10 18 0 17 -4 32 -10 32
-5 0 -10 -8 -10 -17z"/>
<path d="M600 432 c0 -45 4 -52 31 -45 15 4 19 14 19 44 0 35 -3 39 -25 39
-22 0 -25 -4 -25 -38z"/>
<path d="M660 429 c0 -36 2 -40 23 -37 18 2 23 10 25 41 3 34 1 37 -22 37 -24
0 -26 -4 -26 -41z"/>
<path d="M610 338 c0 -20 25 -24 36 -6 5 7 3 8 -6 3 -7 -4 -16 -2 -21 6 -7 11
-9 10 -9 -3z"/>
<path d="M395 240 c6 -9 73 -6 83 5 3 3 -16 5 -42 5 -28 0 -45 -4 -41 -10z"/>
<path d="M1053 163 c42 -2 112 -2 155 0 42 1 7 3 -78 3 -85 0 -120 -2 -77 -3z"/>
<path d="M350 140 c0 -6 -8 -10 -19 -10 -22 0 -31 -26 -31 -87 0 -42 0 -43 35
-43 34 0 35 1 35 39 0 21 3 52 6 68 4 22 2 32 -10 36 -9 4 -16 2 -16 -3z"/>
<path d="M390 70 l0 -70 29 0 c26 0 29 3 35 46 12 89 10 94 -29 94 l-35 0 0
-70z"/>
<path d="M470 70 l0 -70 35 0 35 0 0 70 0 70 -35 0 -35 0 0 -70z"/>
<path d="M550 70 l0 -70 35 0 35 0 0 54 c0 30 3 61 6 70 5 13 -2 16 -35 16
l-41 0 0 -70z"/>
<path d="M640 70 l0 -70 35 0 35 0 0 70 0 70 -35 0 -35 0 0 -70z"/>
<path d="M720 71 l0 -71 35 0 35 0 1 68 c1 76 5 73 14 -11 6 -57 6 -57 40 -57
l34 0 -4 68 c-3 47 -2 58 4 37 5 -16 9 -47 10 -67 1 -35 3 -38 31 -38 26 0 30
4 29 23 -1 12 -1 42 1 67 l2 45 10 -45 c5 -25 12 -55 14 -68 3 -17 11 -22 34
-22 l30 0 -5 58 -4 57 12 -55 c12 -54 13 -55 51 -58 l38 -3 -6 38 c-17 100
-13 94 -64 94 -26 0 -113 2 -194 5 l-148 5 0 -70z"/>
<path d="M6 121 c-4 -7 -5 -15 -2 -18 9 -9 19 4 14 18 -4 11 -6 11 -12 0z"/>
<path d="M21 73 c-15 -76 -16 -73 28 -73 44 0 47 5 57 80 l7 50 -40 0 -40 0
-12 -57z"/>
<path d="M120 111 c0 -10 -3 -39 -6 -65 l-7 -46 40 0 c39 0 41 1 47 37 3 21 6
50 6 66 0 25 -3 27 -40 27 -32 0 -40 -4 -40 -19z"/>
<path d="M210 97 c0 -19 -3 -49 -6 -66 -6 -31 -6 -31 34 -31 44 0 47 5 54 90
3 35 2 35 -39 38 -43 3 -43 3 -43 -31z"/>
<path d="M1127 123 c-3 -5 0 -34 6 -65 l10 -58 39 0 c43 0 42 -3 27 73 -11 55
-13 57 -45 57 -18 0 -35 -3 -37 -7z"/>
<path d="M1216 121 c-3 -4 0 -34 6 -65 11 -48 15 -56 35 -56 22 0 23 4 23 65
l0 65 -29 0 c-17 0 -32 -4 -35 -9z"/>
</g>
</svg>
